<?xml version="1.0" standalone="no"?>
<!DOCTYPE svg PUBLIC "-//W3C//DTD SVG 20010904//EN"
 "http://www.w3.org/TR/2001/REC-SVG-20010904/DTD/svg10.dtd">
<svg version="1.0" xmlns="http://www.w3.org/2000/svg"
 width="401.000000pt" height="230.000000pt" viewBox="0 0 401.000000 230.000000"
 preserveAspectRatio="xMidYMid meet">

<g transform="translate(0.000000,230.000000) scale(0.100000,-0.100000)"
fill="#ff8000" stroke="none">
<path d="M2005 2231 c-3 -5 -18 -7 -33 -5 -44 8 -150 -15 -155 -35 -4 -13 -5
-13 -6 3 -1 12 -6 16 -17 12 -9 -3 -17 -6 -20 -6 -2 0 4 -9 13 -19 9 -11 20
-18 25 -15 4 3 8 0 8 -5 0 -14 1 -14 -48 9 -47 23 -72 25 -122 9 -19 -6 -55
-13 -80 -15 -25 -1 -70 -8 -100 -14 -30 -6 -74 -14 -97 -17 -44 -5 -56 -18
-25 -26 11 -3 7 -5 -10 -6 -15 0 -30 4 -33 9 -3 6 -18 8 -33 5 -15 -3 -49 -8
-77 -11 -27 -3 -57 -12 -66 -20 -11 -10 -19 -12 -23 -5 -6 10 -61 7 -99 -5
-10 -3 -32 -8 -50 -10 -18 -3 -43 -7 -57 -10 -14 -3 -38 -7 -55 -8 -16 -2 -51
-9 -77 -15 -27 -6 -51 -10 -55 -9 -5 1 -19 -2 -33 -6 -14 -3 -41 -9 -60 -12
-19 -3 -48 -7 -65 -10 -16 -2 -43 -5 -59 -5 -16 0 -39 -5 -50 -12 -12 -6 -35
-10 -52 -8 -18 1 -51 -3 -75 -10 -48 -13 -70 -17 -109 -18 -20 -1 -22 -3 -10
-11 11 -7 3 -8 -27 -4 -49 7 -97 -2 -87 -17 3 -6 15 -9 25 -6 11 3 17 2 14 -3
-4 -7 24 -24 34 -20 2 1 8 -5 13 -14 5 -9 16 -16 23 -16 8 0 15 -5 15 -11 0
-5 5 -7 10 -4 6 3 10 1 10 -4 0 -6 8 -11 18 -11 11 0 29 -9 42 -20 12 -11 27
-17 31 -14 5 3 9 1 9 -5 0 -5 8 -10 18 -10 54 -3 61 -5 50 -18 -13 -16 4 -31
72 -65 25 -13 63 -34 85 -47 22 -14 46 -24 53 -23 6 2 12 -4 12 -13 0 -8 5
-15 12 -15 6 0 20 -8 31 -17 13 -11 17 -13 12 -4 -5 8 7 3 26 -11 19 -14 40
-23 47 -21 6 3 12 -2 12 -11 0 -10 9 -16 26 -16 14 0 23 -4 19 -9 -3 -5 5 -13
17 -17 13 -3 31 -15 41 -25 21 -22 37 -25 37 -6 0 7 9 13 20 13 11 0 20 -4 20
-8 0 -4 -7 -8 -15 -8 -8 0 -15 -6 -15 -13 0 -18 45 -38 67 -31 15 5 15 4 3 -5
-12 -9 -12 -11 2 -16 16 -6 44 -13 63 -14 6 -1 3 -6 -5 -11 -13 -8 -12 -10 5
-11 11 -1 23 -1 28 0 4 0 7 -5 7 -12 0 -8 11 -19 25 -25 33 -15 38 -15 30 1
-4 6 0 4 8 -5 8 -10 20 -18 26 -18 7 0 10 -4 6 -9 -3 -6 17 -20 45 -33 27 -13
50 -26 50 -30 0 -4 14 -15 31 -23 24 -13 34 -14 45 -4 11 9 14 8 14 -9 0 -28
29 -36 54 -15 18 15 19 16 8 1 -18 -23 -1 -54 34 -62 14 -4 35 -15 45 -25 16
-15 28 -17 55 -11 29 7 33 6 23 -6 -15 -18 7 -48 30 -39 8 3 12 3 8 -1 -4 -4
5 -16 20 -25 21 -14 29 -15 35 -6 5 8 8 7 8 -5 0 -16 13 -22 47 -21 6 0 9 -5
7 -11 -2 -6 17 -22 43 -36 27 -14 50 -28 51 -33 2 -4 8 -5 13 -1 5 3 9 1 9 -3
0 -5 17 -17 38 -28 20 -11 39 -23 42 -26 3 -4 22 -14 42 -22 40 -17 52 -13
146 43 17 11 32 16 32 12 0 -4 4 -2 8 3 4 6 31 22 60 35 54 26 66 40 32 40
-22 0 -25 8 -9 30 9 12 10 12 5 -4 -5 -15 -2 -17 13 -13 13 3 21 -1 23 -11 3
-14 5 -14 20 1 9 9 22 17 28 17 16 0 74 31 82 44 4 6 8 7 8 2 0 -5 12 3 26 17
15 15 30 24 34 22 11 -7 61 16 55 25 -3 4 3 14 12 21 15 12 16 12 10 -5 -6
-16 -5 -17 7 -7 8 7 14 18 12 24 -1 7 -1 9 1 5 11 -19 86 9 79 29 -3 7 1 10
10 6 9 -3 14 1 14 13 0 16 2 17 10 4 9 -13 12 -13 24 2 11 15 33 24 69 27 18
2 4 22 -25 35 -31 14 -32 14 -8 15 14 1 32 -7 39 -17 12 -18 16 -17 80 15 36
19 71 42 78 50 6 8 16 12 21 9 5 -3 21 3 35 14 14 11 29 20 33 20 4 0 19 10
32 23 14 12 22 16 18 10 -4 -7 -4 -13 1 -13 13 1 39 24 46 40 3 10 6 11 6 2 1
-9 14 -6 43 10 24 13 46 28 50 33 5 7 8 7 8 0 0 -6 3 -6 8 0 4 6 34 24 67 40
33 16 65 34 72 41 7 6 28 15 47 18 20 4 44 18 55 31 11 15 25 23 33 20 8 -3
21 1 28 10 7 8 18 15 26 15 7 0 20 10 28 21 8 12 21 19 29 16 8 -3 24 3 35 13
11 10 22 16 25 14 3 -3 19 2 37 11 18 9 29 19 26 22 -8 8 13 33 28 33 6 0 4
-5 -4 -10 -24 -15 1 -12 47 8 24 9 43 23 43 31 0 7 6 11 13 8 7 -3 21 1 31 8
16 13 16 14 -3 20 -11 3 -34 -1 -52 -10 -31 -16 -32 -16 -27 3 5 16 -2 22 -41
35 -39 12 -46 13 -49 1 -3 -11 -8 -9 -20 6 -13 16 -29 21 -70 22 -28 0 -52 3
-52 7 0 9 -160 46 -182 43 -10 -2 -18 1 -18 6 0 9 -11 11 -65 15 -16 2 -35 6
-41 10 -21 12 -138 39 -171 39 -18 -1 -33 3 -33 8 0 5 -21 12 -47 15 -27 4
-55 9 -63 13 -8 3 -23 6 -32 7 -9 1 -30 8 -46 14 -16 7 -33 11 -38 10 -5 -1
-20 0 -34 3 -14 4 -62 14 -108 24 -46 10 -85 21 -88 25 -2 5 -11 6 -18 3 -8
-3 -38 2 -67 11 -71 21 -106 28 -151 29 -25 0 -38 5 -38 13 0 8 -6 13 -12 11
-7 -1 -40 6 -72 16 -48 14 -60 15 -67 4 -7 -10 -9 -10 -9 0 0 7 -12 12 -28 12
-16 0 -32 3 -36 8 -4 4 -15 7 -24 8 -10 1 -27 2 -40 3 -13 0 -20 6 -17 11 3 6
-5 10 -19 10 -14 0 -27 -4 -31 -9z m-75 -41 c0 -5 -2 -10 -4 -10 -3 0 -8 5
-11 10 -3 6 -1 10 4 10 6 0 11 -4 11 -10z m-255 -30 c8 -13 -5 -13 -25 0 -13
8 -13 10 2 10 9 0 20 -4 23 -10z m265 -14 c0 -3 -4 -8 -10 -11 -5 -3 -10 -1
-10 4 0 6 5 11 10 11 6 0 10 -2 10 -4z m95 -6 c-3 -5 -13 -10 -21 -10 -8 0
-14 5 -14 10 0 6 9 10 21 10 11 0 17 -4 14 -10z m475 -60 c0 -5 -4 -10 -10
-10 -5 0 -10 5 -10 10 0 6 5 10 10 10 6 0 10 -4 10 -10z m139 -19 c-23 -18
-53 -25 -89 -22 -13 1 -13 3 0 10 8 6 26 7 40 4 17 -3 31 1 39 11 8 9 18 16
24 16 5 0 -1 -9 -14 -19z m-1979 -71 c0 -5 -2 -10 -4 -10 -3 0 -8 5 -11 10 -3
6 -1 10 4 10 6 0 11 -4 11 -10z m2385 0 c3 -5 1 -10 -4 -10 -6 0 -11 5 -11 10
0 6 2 10 4 10 3 0 8 -4 11 -10z m-2785 -70 c0 -5 -4 -10 -10 -10 -5 0 -10 5
-10 10 0 6 5 10 10 10 6 0 10 -4 10 -10z m3062 -12 c-7 -7 -12 -8 -12 -2 0 14
12 26 19 19 2 -3 -1 -11 -7 -17z m453 -88 c3 -5 1 -10 -4 -10 -6 0 -11 5 -11
10 0 6 2 10 4 10 3 0 8 -4 11 -10z m-60 -110 c3 -6 -1 -7 -9 -4 -18 7 -21 14
-7 14 6 0 13 -4 16 -10z m-3166 -3 c-2 -2 -12 -9 -21 -16 -15 -11 -18 -11 -18
1 0 7 10 14 21 15 12 1 20 1 18 0z m3096 -34 c-2 -10 -4 -20 -4 -23 -1 -3 -5
2 -11 10 -6 9 -5 17 3 22 16 10 16 10 12 -9z m-64 -32 c-8 -5 -20 -7 -28 -4
-21 8 -15 13 15 13 20 0 23 -3 13 -9z m-2711 -111 c0 -5 -5 -10 -11 -10 -5 0
-7 5 -4 10 3 6 8 10 11 10 2 0 4 -4 4 -10z m115 -40 c3 -5 1 -10 -4 -10 -6 0
-11 5 -11 10 0 6 2 10 4 10 3 0 8 -4 11 -10z m2255 -10 c18 -12 2 -12 -25 0
-13 6 -15 9 -5 9 8 0 22 -4 30 -9z m-2220 -20 c8 -5 11 -12 7 -16 -4 -4 -15 0
-24 9 -18 18 -8 23 17 7z m1891 -158 c-7 -2 -18 1 -23 6 -8 8 -4 9 13 5 13 -4
18 -8 10 -11z m-86 -52 c-3 -5 -16 -10 -28 -9 -20 1 -20 2 3 9 14 4 26 8 28 9
2 1 0 -3 -3 -9z m-1505 -48 c0 -15 -2 -15 -10 -2 -13 20 -13 33 0 25 6 -3 10
-14 10 -23z m167 -88 c-3 -3 -12 -4 -19 -1 -8 3 -5 6 6 6 11 1 17 -2 13 -5z
m984 -37 c-10 -9 -11 -8 -5 6 3 10 9 15 12 12 3 -3 0 -11 -7 -18z m-136 -96
c-3 -6 -11 -11 -17 -11 -6 0 -6 6 2 15 14 17 26 13 15 -4z m-487 -65 c-7 -8
-15 -12 -17 -11 -5 6 10 25 20 25 5 0 4 -6 -3 -14z m149 -92 c-3 -3 -12 -4
-19 -1 -8 3 -5 6 6 6 11 1 17 -2 13 -5z"/>
<path d="M47 1713 c-25 -24 13 -80 74 -112 23 -12 48 -29 57 -37 9 -9 17 -12
21 -6 4 6 14 4 26 -5 20 -16 20 -16 0 -9 -18 7 -19 6 -4 -9 9 -9 23 -17 31
-19 8 -1 23 -9 32 -19 10 -9 24 -17 32 -17 8 0 14 -4 14 -10 0 -5 7 -10 15
-10 8 0 15 -5 15 -11 0 -5 4 -7 10 -4 5 3 10 2 10 -3 0 -6 11 -13 25 -16 14
-4 25 -11 25 -17 0 -8 5 -7 15 1 13 11 14 10 9 -5 -6 -14 -3 -16 14 -11 18 6
21 4 15 -10 -5 -13 -2 -15 18 -9 18 5 20 4 9 -4 -12 -8 -12 -11 4 -17 10 -4
44 -24 75 -45 34 -23 60 -34 66 -29 6 5 17 5 25 0 12 -8 12 -10 -3 -10 -10 0
-16 -4 -13 -9 4 -5 17 -8 31 -7 13 2 23 0 22 -3 -2 -6 51 -61 58 -61 1 0 0 12
-3 26 -3 18 -1 25 6 20 6 -4 9 -12 7 -19 -6 -15 12 -37 48 -60 28 -18 29 -18
42 0 12 15 16 16 27 4 11 -12 10 -13 -4 -8 -12 4 -18 1 -18 -9 0 -9 9 -18 20
-21 11 -3 20 -10 20 -15 0 -5 4 -7 9 -4 5 3 12 -1 15 -10 3 -8 10 -12 16 -9 5
3 10 1 10 -5 0 -7 7 -10 15 -6 8 3 20 -3 27 -12 18 -25 138 -103 148 -97 5 3
15 -4 23 -16 18 -25 65 -51 78 -43 5 3 12 -2 15 -11 4 -9 13 -14 20 -11 7 3
20 -4 27 -14 17 -25 84 -70 91 -62 4 3 16 -5 27 -17 27 -29 61 -42 99 -37 17
2 33 0 36 -5 3 -5 -3 -9 -12 -9 -14 0 -12 -6 11 -30 38 -40 112 -83 130 -76 8
3 16 -3 20 -13 3 -10 18 -24 33 -31 30 -15 29 -15 56 -4 16 6 18 4 13 -10 -8
-21 29 -60 48 -52 7 2 18 -5 26 -15 8 -11 25 -26 39 -33 14 -7 35 -18 46 -26
27 -17 -28 -46 1254 662 502 278 661 370 700 406 36 34 48 70 26 78 -21 8 -86
-23 -622 -304 -253 -132 -574 -299 -714 -372 -140 -73 -295 -154 -345 -180
-49 -26 -135 -70 -190 -99 l-100 -52 2 -72 c0 -40 -1 -61 -4 -47 -3 14 -10 28
-17 32 -8 6 -8 13 2 28 17 28 15 44 -8 65 -11 10 -20 15 -20 12 0 -3 -12 6
-26 20 -21 21 -28 23 -35 12 -7 -11 -9 -10 -9 4 0 10 -4 15 -10 12 -5 -3 -10
-1 -10 4 0 6 -7 11 -15 11 -9 0 -21 5 -28 10 -48 41 -61 49 -68 45 -4 -3 -10
-1 -14 5 -4 6 -11 7 -17 4 -6 -4 -8 -2 -5 3 9 14 -38 44 -56 37 -9 -3 -17 3
-20 17 -4 14 -11 20 -21 16 -9 -4 -16 -2 -16 3 0 9 -16 19 -100 62 -14 7 -28
17 -31 22 -4 5 -12 6 -17 2 -6 -4 -16 2 -21 13 -6 10 -22 22 -36 25 -14 4 -25
11 -25 16 0 6 -6 10 -14 10 -8 0 -27 10 -43 23 -31 26 -68 43 -58 27 3 -6 -1
-10 -10 -10 -11 0 -15 5 -12 14 8 20 -15 37 -33 26 -22 -14 -30 -12 -24 5 7
18 -12 20 -20 3 -3 -7 -4 -3 -3 9 1 12 -2 23 -8 24 -5 2 -19 11 -29 21 -10 9
-23 15 -29 11 -5 -3 -5 -8 2 -12 6 -4 -4 -7 -23 -7 -33 0 -33 0 -12 18 17 14
18 17 5 18 -9 0 -22 7 -29 15 -7 8 -16 13 -20 10 -5 -3 -16 5 -24 17 -12 17
-18 20 -28 10 -17 -17 -38 -15 -38 3 0 9 6 12 18 9 13 -4 12 -2 -3 7 -11 7
-22 15 -25 18 -9 10 -43 31 -87 52 -23 11 -45 24 -48 29 -7 11 -122 73 -141
76 -8 1 -12 -1 -9 -6 3 -4 -2 -10 -10 -13 -9 -4 -18 5 -26 26 -7 19 -28 43
-53 59 -37 24 -43 25 -57 12 -11 -10 -19 -12 -24 -5 -3 6 1 11 9 11 9 0 16 5
16 10 0 6 -7 10 -15 10 -8 0 -15 5 -15 12 0 6 -3 9 -6 5 -4 -3 -21 5 -39 19
-19 14 -39 22 -49 18 -11 -4 -15 -2 -11 8 6 14 -51 48 -80 48 -8 0 -15 7 -15
15 0 8 -5 15 -10 15 -6 0 -27 11 -48 23 -41 26 -131 77 -136 77 -1 0 -6 -3 -9
-7z m17 -18 c-4 -8 -8 -15 -10 -15 -2 0 -4 7 -4 15 0 8 4 15 10 15 5 0 7 -7 4
-15z m86 -62 c0 -18 -17 -16 -24 2 -3 8 -12 15 -21 15 -8 0 -15 4 -15 9 0 5
14 4 30 -2 17 -6 30 -17 30 -24z m107 -59 c-3 -3 -12 -4 -19 -1 -8 3 -5 6 6 6
11 1 17 -2 13 -5z m603 -364 c0 -5 -4 -10 -10 -10 -5 0 -10 5 -10 10 0 6 5 10
10 10 6 0 10 -4 10 -10z m35 0 c3 -6 -1 -7 -9 -4 -18 7 -21 14 -7 14 6 0 13
-4 16 -10z m235 -191 c0 -16 -4 -19 -22 -14 -29 9 -48 26 -21 19 12 -3 24 -1
27 5 11 17 16 13 16 -10z m70 -44 c7 -9 8 -15 2 -15 -5 0 -12 7 -16 15 -3 8
-4 15 -2 15 2 0 9 -7 16 -15z m50 -35 c0 -5 -5 -10 -11 -10 -5 0 -7 5 -4 10 3
6 8 10 11 10 2 0 4 -4 4 -10z m77 -12 c2 -20 1 -21 -8 -5 -6 9 -14 15 -19 12
-5 -3 -11 -1 -15 5 -3 6 4 10 17 10 17 0 24 -6 25 -22z m106 -75 c-7 -2 -19
-2 -25 0 -7 3 -2 5 12 5 14 0 19 -2 13 -5z m51 -68 c-4 -8 -11 -12 -16 -9 -6
4 -5 10 3 15 19 12 19 11 13 -6z m201 -35 c3 -5 1 -10 -4 -10 -6 0 -11 5 -11
10 0 6 2 10 4 10 3 0 8 -4 11 -10z m-77 -24 c-7 -8 -15 -12 -17 -11 -5 6 10
25 20 25 5 0 4 -6 -3 -14z m98 -49 c4 -4 -5 -7 -20 -7 -15 0 -25 4 -22 9 7 10
31 9 42 -2z m79 -17 c-3 -5 -10 -10 -16 -10 -5 0 -9 5 -9 10 0 6 7 10 16 10 8
0 12 -4 9 -10z m150 -119 c-3 -6 -11 -11 -17 -11 -6 0 -6 6 2 15 14 17 26 13
15 -4z m20 -41 c3 -5 1 -10 -4 -10 -6 0 -11 5 -11 10 0 6 2 10 4 10 3 0 8 -4
11 -10z"/>
<path d="M44 1455 c-8 -32 3 -75 18 -75 7 0 21 -9 33 -20 52 -49 65 -59 70
-50 4 6 11 10 17 10 7 0 6 -6 -2 -15 -9 -11 -10 -15 -1 -15 7 0 19 -6 27 -14
8 -8 23 -12 36 -9 18 5 20 3 14 -13 -4 -10 -4 -15 0 -12 4 4 15 -3 25 -16 13
-16 26 -22 39 -19 16 4 19 2 14 -11 -8 -20 6 -21 32 -1 10 8 24 14 29 14 6 1
-1 -8 -15 -19 -14 -10 -23 -20 -20 -22 3 -2 16 -12 29 -23 15 -12 21 -14 16
-5 -8 13 -7 13 11 0 10 -8 36 -29 57 -47 20 -18 41 -33 46 -33 17 0 24 22 10
31 -8 5 -9 9 -3 9 18 0 37 -27 24 -35 -5 -3 -10 -11 -10 -16 0 -6 4 -7 10 -4
5 3 10 1 10 -5 0 -6 11 -15 25 -20 14 -5 25 -14 25 -20 0 -5 7 -10 15 -10 8 0
15 -4 15 -10 0 -5 7 -10 15 -10 8 0 15 -5 15 -10 0 -6 12 -16 27 -23 15 -6 36
-20 45 -29 10 -10 24 -18 32 -18 8 0 21 -8 28 -18 7 -10 35 -31 62 -47 40 -23
48 -26 43 -12 -4 12 -3 16 4 12 6 -4 8 -13 5 -20 -5 -13 10 -32 27 -34 4 -1
17 9 29 21 14 14 23 18 26 10 2 -7 8 -10 13 -6 5 3 9 1 9 -4 0 -6 -7 -13 -16
-16 -8 -3 -12 -2 -9 4 3 6 2 10 -3 10 -15 0 -21 -37 -9 -49 6 -6 15 -11 20
-11 5 0 14 -6 21 -12 29 -29 127 -94 155 -103 12 -3 21 -12 21 -18 1 -12 83
-67 101 -67 5 0 9 -4 9 -10 0 -5 9 -10 20 -10 10 0 25 -10 31 -22 11 -21 12
-21 27 -2 11 14 13 15 9 2 -6 -17 21 -48 42 -48 7 0 10 -4 6 -9 -6 -12 31 -25
45 -16 6 3 7 -1 4 -9 -6 -15 6 -21 29 -17 5 1 6 -3 2 -9 -3 -5 5 -15 19 -22
14 -6 26 -15 26 -20 0 -5 9 -7 20 -3 16 5 19 3 13 -11 -4 -11 -2 -15 8 -12 7
2 26 -8 41 -24 15 -15 32 -28 37 -28 6 0 25 -12 43 -28 18 -15 45 -34 61 -41
15 -8 27 -18 27 -23 0 -4 7 -8 15 -8 8 0 15 -5 15 -11 0 -5 5 -7 10 -4 5 3 10
2 10 -4 0 -6 7 -8 15 -5 11 5 13 2 9 -11 -6 -14 -2 -16 22 -14 20 3 28 0 26
-10 -3 -13 24 -40 41 -41 10 0 9 38 -3 61 -8 14 -7 19 1 19 19 0 0 73 -24 92
-12 9 -25 14 -29 12 -4 -3 -8 -1 -8 5 0 6 -21 23 -47 38 -27 15 -54 33 -61 40
-8 7 -26 10 -45 7 -22 -4 -28 -3 -18 4 19 14 3 35 -24 30 -18 -4 -21 -1 -17
15 4 16 1 19 -11 14 -11 -4 -17 -1 -17 8 0 9 -6 12 -15 9 -8 -4 -17 1 -21 10
-3 9 -10 16 -15 16 -4 0 -19 11 -33 25 -15 15 -31 22 -40 19 -10 -4 -16 -1
-16 9 0 9 -9 19 -20 22 -11 3 -20 10 -20 14 0 8 -40 29 -51 27 -4 0 -16 7 -27
17 -15 13 -22 15 -27 6 -6 -8 -10 -7 -17 5 -5 9 -7 20 -4 25 7 10 -49 33 -58
24 -3 -4 -6 1 -6 10 0 16 -37 43 -53 39 -5 -1 -18 9 -29 23 -11 14 -23 23 -28
20 -4 -3 -13 2 -20 10 -7 8 -19 15 -27 15 -7 0 -16 7 -19 15 -4 8 -17 15 -30
15 -15 0 -24 6 -24 15 0 18 -11 19 -30 3 -12 -11 -12 -10 -2 3 11 14 8 20 -14
38 -30 23 -40 26 -49 11 -3 -5 -12 -10 -18 -10 -7 0 -4 6 5 14 20 15 14 26
-14 26 -11 0 -16 5 -13 10 3 6 -3 10 -14 10 -11 0 -25 9 -31 20 -6 11 -17 20
-25 20 -8 0 -15 4 -15 9 0 5 -9 13 -21 16 -12 4 -29 14 -38 23 -16 15 -60 42
-86 52 -5 2 -32 21 -60 42 -27 21 -58 38 -67 38 -10 0 -22 9 -28 20 -6 11 -15
20 -21 20 -6 0 -17 7 -25 15 -8 8 -22 11 -31 8 -11 -4 -14 -3 -9 5 8 13 -170
136 -184 127 -4 -3 -14 3 -21 11 -12 15 -45 39 -118 86 -14 9 -30 20 -36 25
-5 4 -22 16 -37 26 -27 17 -28 17 -34 -8z m196 -135 c0 -5 -6 -10 -14 -10 -8
0 -18 5 -21 10 -3 6 3 10 14 10 12 0 21 -4 21 -10z m115 -79 c-9 -8 -36 -10
-30 -2 2 4 11 8 20 8 8 0 13 -3 10 -6z m95 -61 c0 -5 -7 -10 -16 -10 -8 0 -12
5 -9 10 3 6 10 10 16 10 5 0 9 -4 9 -10z m135 -98 c-6 -7 -35 18 -35 31 0 5 9
2 20 -8 11 -10 18 -20 15 -23z m65 -42 c8 -5 12 -11 10 -14 -3 -2 -14 2 -24
10 -22 15 -10 19 14 4z m210 -140 c0 -5 -7 -10 -15 -10 -8 0 -15 5 -15 10 0 6
7 10 15 10 8 0 15 -4 15 -10z m70 -44 c0 -2 -9 -6 -20 -9 -11 -3 -18 -1 -14 4
5 9 34 13 34 5z m155 -106 c-3 -5 -13 -10 -21 -10 -8 0 -12 5 -9 10 3 6 13 10
21 10 8 0 12 -4 9 -10z m201 -106 c-3 -9 -6 -18 -6 -20 0 -2 -7 -4 -16 -4 -9
0 -12 -5 -8 -11 4 -7 1 -10 -6 -7 -23 7 -23 28 -1 28 12 0 21 6 21 15 0 8 5
15 11 15 6 0 8 -7 5 -16z m38 -69 c-4 -8 -13 -15 -22 -15 -13 0 -12 3 4 15 24
18 25 18 18 0z m97 -25 c17 -10 18 -13 5 -25 -19 -19 -30 -19 -22 0 3 8 1 15
-4 15 -6 0 -10 5 -10 10 0 13 6 13 31 0z m214 -179 c-8 -13 -35 -15 -35 -2 0
5 8 11 18 13 21 5 26 2 17 -11z m202 -87 c-3 -3 -12 -4 -19 -1 -8 3 -5 6 6 6
11 1 17 -2 13 -5z m-67 -34 c0 -5 -7 -7 -15 -4 -8 4 -12 10 -9 15 6 11 24 2
24 -11z m140 -36 c0 -8 -4 -12 -10 -9 -5 3 -10 10 -10 16 0 5 5 9 10 9 6 0 10
-7 10 -16z"/>
<path d="M3170 894 c-432 -251 -872 -506 -977 -567 l-193 -112 0 -82 c0 -46 4
-83 9 -83 15 0 529 311 1466 888 456 280 474 292 490 315 18 26 20 97 3 97 -7
-1 -366 -206 -798 -456z"/>
</g>
</svg>
